# xmcd
# 
# Track frame offsets:
#     182
#     15237
#     35042
#     52820
# 
# Disc length: 919
# 
# Revision: 3
# Processed by: cddbd v1.5.2PL0 Copyright (c) Steve Scherf et al.
# Submitted via: fre:ac v1.1beta1pre5
# 
DISCID=23039504
DTITLE=Shania Twain - You're Still The One (Maxi CD)
DYEAR=1998
DGENRE=Country
TTITLE0=You're Still The One (Single Version)
TTITLE1=(If You're Not In It For Love) I'm Outta Here! (Mutt Lange Mix)
TTITLE2=You Win My Love (Mutt Lange Mix)
TTITLE3=You're Still The One (LP Version)
EXTD=YEAR: 1998
EXTT0=
EXTT1=
EXTT2=
EXTT3=
PLAYORDER=
